<svg xmlns="http://www.w3.org/2000/svg" viewBox="0 0 24 24" fill="currentColor"><path d="M9 2h6v1h1v3H8V3h1V2zm-1 4h8v1H8V6zM12 7c-4.4 0-8 3.1-8 6.9 0 1.4.5 2.7 1.4 3.7L4 21h3l.7-1.4c.4.1.8.1 1.3.1v1.8h2v-1.9c.7-.1 1.3-.3 2-.5v.4l1 1.5h2l-.5-1.7c.5-.3 1-.6 1.5-1l.5 1.7h2l-1.4-3.5c.5-.6.9-1.3 1.1-2.1H21v-3h-1.7c-.5-1-1.2-1.9-2.1-2.6V8h-1c-1.2-.6-2.6-1-4.2-1zm5.5 1.5c.3 0 .5.2.5.5s-.2.5-.5.5-.5-.2-.5-.5.2-.5.5-.5zM12 9c1.4 0 2.7.4 3.8 1.1.9.6 1.6 1.4 2 2.4.2.5.3 1 .3 1.5 0 .9-.3 1.7-.7 2.4-.6.9-1.5 1.6-2.5 2-1 .4-2 .6-3 .6-.9 0-1.7-.1-2.5-.4-1.5-.5-2.7-1.6-3.4-3-.3-.7-.5-1.4-.5-2.2 0-2.6 2.5-4.4 6.5-4.4zm-3 7c.5.3 1 .5 1.5.7v1.4c-.6-.1-1.1-.3-1.6-.6L9 16z"/></svg>
