<svg xmlns="http://www.w3.org/2000/svg" viewBox="0 0 24 24" fill="currentColor"><path d="M19 4c-1.1 0-2 .9-2 2v.5c-1.5-.9-3.2-1.5-5-1.5-4.4 0-8 3.6-8 8 0 1.5.4 2.9 1.1 4.1L4 19h3l.5-1.5c.8.3 1.6.4 2.5.4v2h2v-2.2c.7-.1 1.4-.3 2-.6V19h3l1.5-3.4c.6-.4 1-1 1.3-1.6h2.2v-3h-2.2c-.4-1.2-1.1-2.2-2-3V6c0-1.1-.9-2-2-2zm0 2.5c.3 0 .5.2.5.5s-.2.5-.5.5-.5-.2-.5-.5.2-.5.5-.5zM12 7c1.7 0 3.2.6 4.4 1.5.8.6 1.4 1.4 1.8 2.3.2.4.3.8.3 1.2 0 .9-.3 1.7-.7 2.4-.5.8-1.2 1.4-2 1.8-1 .5-2.1.8-3.3.8-1 0-2-.2-2.9-.6-1.4-.6-2.5-1.7-3.1-3.1-.3-.6-.5-1.4-.5-2.1 0-2.7 2.5-4.2 6-4.2zm-3.5 8c.5.3 1 .5 1.5.7v1.4c-.6-.1-1.2-.3-1.7-.6l.2-1.5z"/></svg>
